<?xml version="1.0" encoding="UTF-8"?>
<svg width="1200" height="800" viewBox="0 0 1200 800" fill="none" xmlns="http://www.w3.org/2000/svg">
  <defs>
    <linearGradient id="bg" x1="0" y1="0" x2="1" y2="1">
      <stop offset="0%" stop-color="#F8FAFF"/>
      <stop offset="100%" stop-color="#E0F2FF"/>
    </linearGradient>
    <linearGradient id="center" x1="0" y1="0" x2="1" y2="1">
      <stop offset="0%" stop-color="#1D4ED8"/>
      <stop offset="100%" stop-color="#7C3AED"/>
    </linearGradient>
    <linearGradient id="branchOrange" x1="0" y1="0" x2="1" y2="0">
      <stop offset="0%" stop-color="#FDBA74"/>
      <stop offset="100%" stop-color="#F97316"/>
    </linearGradient>
    <linearGradient id="branchGreen" x1="0" y1="0" x2="1" y2="0">
      <stop offset="0%" stop-color="#6EE7B7"/>
      <stop offset="100%" stop-color="#22C55E"/>
    </linearGradient>
    <linearGradient id="branchBlue" x1="0" y1="0" x2="1" y2="0">
      <stop offset="0%" stop-color="#93C5FD"/>
      <stop offset="100%" stop-color="#2563EB"/>
    </linearGradient>
    <linearGradient id="branchPurple" x1="0" y1="0" x2="1" y2="0">
      <stop offset="0%" stop-color="#C4B5FD"/>
      <stop offset="100%" stop-color="#7C3AED"/>
    </linearGradient>
    <filter id="cardShadow" x="-20%" y="-20%" width="140%" height="140%">
      <feDropShadow dx="0" dy="8" stdDeviation="12" flood-color="#1E293B" flood-opacity="0.18"/>
    </filter>
    <filter id="centerShadow" x="-20%" y="-20%" width="140%" height="140%">
      <feDropShadow dx="0" dy="10" stdDeviation="16" flood-color="#312E81" flood-opacity="0.3"/>
    </filter>
  </defs>

  <rect width="1200" height="800" rx="30" fill="url(#bg)"/>

  <path d="M340 160 Q600 60 920 140" stroke="#F97316" stroke-width="6" stroke-linecap="round" opacity="0.25"/>
  <path d="M340 320 Q600 320 920 320" stroke="#22C55E" stroke-width="6" stroke-linecap="round" opacity="0.25"/>
  <path d="M340 500 Q600 560 920 520" stroke="#2563EB" stroke-width="6" stroke-linecap="round" opacity="0.25"/>
  <path d="M340 660 Q600 730 920 680" stroke="#7C3AED" stroke-width="6" stroke-linecap="round" opacity="0.25"/>

  <g filter="url(#centerShadow)">
    <rect x="110" y="250" width="320" height="300" rx="32" fill="url(#center)"/>
  </g>
  <text x="270" y="315" font-family="Inter, 'Segoe UI', sans-serif" font-size="26" font-weight="700" fill="#E0EAFF" text-anchor="middle">
    AP US History · Unit 1
  </text>
  <text x="270" y="356" font-family="Inter, 'Segoe UI', sans-serif" font-size="34" font-weight="700" fill="#FFFFFF" text-anchor="middle">
    Topic 1.2
  </text>
  <text x="270" y="395" font-family="Inter, 'Segoe UI', sans-serif" font-size="22" font-weight="600" fill="#C7D2FE" text-anchor="middle">
    Native American Societies
  </text>
  <text x="270" y="436" font-family="Inter, 'Segoe UI', sans-serif" font-size="16" fill="#E0E7FF" text-anchor="middle">
    Pre-contact cultural, social, and economic networks
  </text>
  <line x1="210" y1="462" x2="330" y2="462" stroke="#C7D2FE" stroke-width="2" stroke-linecap="round"/>
  <text x="270" y="494" font-family="Inter, 'Segoe UI', sans-serif" font-size="16" fill="#E0E7FF" text-anchor="middle">
    Study focus · Cultural mosaic · Exchange routes · Worldviews
  </text>

  <g filter="url(#cardShadow)">
    <rect x="500" y="110" width="340" height="170" rx="26" fill="#FFFFFF"/>
    <rect x="500" y="110" width="14" height="170" rx="7" fill="url(#branchOrange)"/>
  </g>
  <text x="526" y="154" font-family="Inter, 'Segoe UI', sans-serif" font-size="22" font-weight="700" fill="#C2410C">Cultural Mosaic</text>
  <text x="526" y="187" font-family="Inter, 'Segoe UI', sans-serif" font-size="16" fill="#7C2D12">• Pueblo cliff dwellings (Southwest)</text>
  <text x="526" y="212" font-family="Inter, 'Segoe UI', sans-serif" font-size="16" fill="#7C2D12">• Cahokia & Mississippian mound cities</text>
  <text x="526" y="237" font-family="Inter, 'Segoe UI', sans-serif" font-size="16" fill="#7C2D12">• Iroquois longhouses & Plains mobility</text>

  <path d="M430 320 C500 220 510 190 500 180" stroke="url(#branchOrange)" stroke-width="8" fill="none" stroke-linecap="round"/>

  <g filter="url(#cardShadow)">
    <rect x="540" y="290" width="360" height="170" rx="26" fill="#FFFFFF"/>
    <rect x="540" y="290" width="14" height="170" rx="7" fill="url(#branchGreen)"/>
  </g>
  <text x="566" y="334" font-family="Inter, 'Segoe UI', sans-serif" font-size="22" font-weight="700" fill="#047857">Social Organization</text>
  <text x="566" y="367" font-family="Inter, 'Segoe UI', sans-serif" font-size="16" fill="#064E3B">• Clan councils & consensus diplomacy</text>
  <text x="566" y="392" font-family="Inter, 'Segoe UI', sans-serif" font-size="16" fill="#064E3B">• Stewardship over land and resources</text>
  <text x="566" y="417" font-family="Inter, 'Segoe UI', sans-serif" font-size="16" fill="#064E3B">• Complementary gender roles</text>

  <path d="M430 380 C500 380 520 360 540 330" stroke="url(#branchGreen)" stroke-width="8" fill="none" stroke-linecap="round"/>

  <g filter="url(#cardShadow)">
    <rect x="560" y="470" width="360" height="180" rx="26" fill="#FFFFFF"/>
    <rect x="560" y="470" width="14" height="180" rx="7" fill="url(#branchBlue)"/>
  </g>
  <text x="586" y="516" font-family="Inter, 'Segoe UI', sans-serif" font-size="22" font-weight="700" fill="#1D4ED8">Economy & Exchange</text>
  <text x="586" y="549" font-family="Inter, 'Segoe UI', sans-serif" font-size="16" fill="#1E3A8A">• “Three Sisters” agriculture sustains towns</text>
  <text x="586" y="574" font-family="Inter, 'Segoe UI', sans-serif" font-size="16" fill="#1E3A8A">• Seasonal hunting, fishing, irrigation</text>
  <text x="586" y="599" font-family="Inter, 'Segoe UI', sans-serif" font-size="16" fill="#1E3A8A">• Trade in obsidian, shells, copper</text>

  <path d="M430 420 C490 520 520 540 560 540" stroke="url(#branchBlue)" stroke-width="8" fill="none" stroke-linecap="round"/>

  <g filter="url(#cardShadow)">
    <rect x="520" y="650" width="340" height="160" rx="26" fill="#FFFFFF"/>
    <rect x="520" y="650" width="14" height="160" rx="7" fill="url(#branchPurple)"/>
  </g>
  <text x="546" y="694" font-family="Inter, 'Segoe UI', sans-serif" font-size="22" font-weight="700" fill="#6D28D9">Beliefs & Worldview</text>
  <text x="546" y="727" font-family="Inter, 'Segoe UI', sans-serif" font-size="16" fill="#5B21B6">• Reciprocity with the natural world</text>
  <text x="546" y="752" font-family="Inter, 'Segoe UI', sans-serif" font-size="16" fill="#5B21B6">• Sacred landscapes & origin stories</text>
  <text x="546" y="777" font-family="Inter, 'Segoe UI', sans-serif" font-size="16" fill="#5B21B6">• Communal ceremonies strengthen kinship</text>

  <path d="M430 420 C470 600 500 630 520 660" stroke="url(#branchPurple)" stroke-width="8" fill="none" stroke-linecap="round"/>

  <text x="1030" y="760" font-family="Inter, 'Segoe UI', sans-serif" font-size="18" fill="#1E293B" text-anchor="end">
    Mind Map · Native American Societies (1491-1607)
  </text>
  <text x="1030" y="785" font-family="Inter, 'Segoe UI', sans-serif" font-size="12" fill="#475569" text-anchor="end">
    Connect culture, social structure, exchange, and belief systems before European contact.
  </text>
</svg>
